<?xml version="1.0" standalone="no"?>
<!DOCTYPE svg PUBLIC "-//W3C//DTD SVG 20010904//EN"
 "http://www.w3.org/TR/2001/REC-SVG-20010904/DTD/svg10.dtd">
<svg version="1.0" xmlns="http://www.w3.org/2000/svg"
 width="700.000000pt" height="700.000000pt" viewBox="0 0 700.000000 700.000000"
 preserveAspectRatio="xMidYMid meet">
<metadata>
Created by potrace 1.14, written by Peter Selinger 2001-2017
</metadata>
<g transform="translate(0.000000,700.000000) scale(0.100000,-0.100000)"
fill="#000000" stroke="none">
<path d="M3413 6881 c-75 -19 -149 -66 -223 -141 -87 -88 -85 -86 -133 -167
-64 -110 -136 -292 -166 -420 l-13 -51 -71 39 c-147 82 -324 154 -427 175
-314 61 -539 -39 -600 -268 -19 -67 -20 -78 -21 -158 -1 -149 52 -325 161
-537 38 -73 65 -135 61 -137 -4 -3 -25 -10 -47 -15 -240 -59 -434 -156 -571
-285 -156 -145 -198 -315 -121 -485 68 -152 258 -295 523 -394 50 -18 196 -60
213 -60 18 0 15 -13 -12 -55 -72 -115 -162 -330 -185 -442 -20 -103 -21 -115
-21 -180 0 -126 26 -215 84 -292 84 -110 202 -157 376 -152 113 3 158 12 310
60 57 19 267 121 299 145 36 28 49 23 61 -23 60 -245 178 -476 307 -603 44
-44 140 -107 154 -102 3 1 12 -3 20 -9 33 -27 146 -34 222 -13 213 56 393 296
501 667 l32 111 30 -20 c92 -61 313 -159 419 -185 17 -4 35 -8 40 -10 59 -15
171 -25 231 -20 280 22 427 225 389 536 -17 143 -103 372 -196 523 -30 50 -29
66 8 67 6 0 67 18 134 41 379 126 597 321 613 547 16 237 -189 449 -564 582
-58 21 -131 43 -162 50 -32 7 -58 16 -58 19 0 3 12 26 26 51 236 407 270 765
88 946 -186 186 -538 152 -961 -93 -24 -14 -43 -21 -44 -16 -7 69 -78 274
-136 388 -88 175 -197 297 -319 356 -53 25 -83 32 -143 35 -42 2 -90 -1 -108
-5z m261 -1770 c286 -100 440 -410 343 -690 -126 -363 -566 -489 -863 -248
-77 63 -125 132 -175 252 -15 35 -27 139 -24 198 16 252 202 462 455 511 54
10 206 -3 264 -23z"/>
<path d="M3448 2064 c-61 -32 -58 11 -58 -971 0 -872 1 -899 20 -930 25 -42
53 -56 101 -50 87 10 99 43 99 262 0 96 3 176 8 176 4 1 16 3 27 4 20 2 63 10
120 20 57 11 180 47 189 56 6 5 16 9 22 9 26 0 172 76 259 134 80 54 234 196
291 267 118 147 209 337 253 529 29 126 36 221 32 453 l-1 57 -73 -5 c-337
-22 -635 -159 -864 -396 -103 -108 -166 -194 -227 -314 l-35 -70 -1 348 c0
371 -2 392 -50 417 -34 18 -83 20 -112 4z"/>
</g>
</svg>
